<svg xmlns="http://www.w3.org/2000/svg" viewBox="0 0 600 600"><defs><style>.cls-1 { fill: #e19f1f; }</style></defs><path class="cls-1" d="m582.98,288.86c8.6-55.6,19.36-124.93,10.38-193.04-3.83-28.82-8.75-56.77-27.14-81.09-.26-.39-.6-.7-.86-1.09-3.74-8.68-10.11-13.61-17.13-13.26l-.65.03c-1.39-.33-2.52-.44-3.57-.39-1.21.06-2.33.36-3.19.8-17.92,3.69-36.06,7.88-53.64,11.88-10.95,2.55-21.81,5.01-32.77,7.4-38.93,2.06-77.89,9.84-115.51,17.31l-2.56.53c-66.18,3.23-133.46-1.23-198.55-5.55l-8.67-.54c-6.4-.41-13.6-3.77-21.28-7.26-9.59-4.45-19.51-9.04-29.58-8.55l-1.21.06c-14.4,1.35-21.11,16.17-26.51,28.04-1.97,4.28-3.79,8.4-5.75,11.39-13.83,21.38-18.53,45.78-23.2,69.37-.64,3.49-1.36,6.91-2.08,10.41C7.64,193.25,2.24,253.12,3.4,313.33c.4,18.19,3.79,36.39,7.07,53.95,3.17,17,6.53,34.48,6.88,51.63.14,7.89.2,15.78.26,23.59.1,25.29.25,51.47,5.4,77.64.76,3.99.6,8.91.45,14.24-.4,11.7-.82,26.22,10.92,33.46,16.83,10.38,40.55,14.62,47.38,15.65,8.06,1.22,16.97,1.59,27.2,1.09,9.59-.47,19.23-1.58,28.63-2.77,9.16-1.09,18.64-2.2,27.83-2.64,8.54-.42,15.99-.22,22.74.66,65.3,8.58,128.39,13.23,204.02,18.41,18.81,1.34,39.14,2.36,60.02,1.34,13.06-.64,25.35-2.04,37.44-4.24,4.33-.78,8.59-1.3,12.76-1.83,10.29-1.22,20.97-2.55,31.46-7.81,14.59-7.32,18.65-13.48,19.88-29.73.31-3.56.46-7.11.61-10.74,4.4.67,8.78,1.18,12.89.98,8.95-.44,15-4.04,18.06-10.79,4.81-10.63-3.48-21.66-10.74-31.46-3.89-5.13-8.21-11.04-8.8-14.72-8.69-52.26,1-107.19,10.37-160.26,2.41-13.49,4.75-26.9,6.77-40.21l.08.08ZM55.42,533.54c.22-3.72.46-7.19-.41-10.21-1.87-6.84-4.78-13.54-7.52-20.02-4.1-9.55-7.93-18.46-8.77-27.44-2.35-26.71-3.89-56.52-4.57-93.71-.46-22.7-1.76-45.92-2.93-68.33-2.05-37.2-4.09-75.69-2.6-113.06.63-15.26,6.73-31.02,12.53-46.21,3.59-9.2,7.25-18.72,9.78-28.19,1.64-6.2,1.47-12.96,1.23-19.48-.2-7.32-.45-14.24,1.97-19.27,1.1-2.23,1.95-4.77,2.87-7.39.99-2.95,1.99-5.66,3.1-7.64,1.45-1.68,9.03-3.66,12.7-4.65,3.27-.81,6.3-1.68,8.6-2.59h.24c1.69-.09,4.91,1.2,7.47,2.28,3.3,1.37,6.68,2.73,10,2.89.97.03,1.94.07,2.91.02,3.87-.19,7.46-1.09,11.05-1.99,3.11-.8,5.99-1.5,8.65-1.63.57-.03,1.13-.06,1.7,0,2.76.19,5.58.21,8.4.07,1.21-.06,2.5-.12,3.71-.18-6.23,1.51-12.53,3.19-18.65,5.34-13.43,4.68-31.86,12.83-37.63,28.66-8.18,22.72-11.64,48.02-14.89,72.5-1.18,8.84-2.37,17.6-3.74,26.04-3.86,23.63-4.61,47.99-5.32,71.55-.27,9.44-.61,18.96-1.04,28.33-3.45,65.26.77,131.92,12.48,197.89.32,1.68.57,3.43.9,5.27,2.11,13.51,4.79,30.3,20.01,37.53,2.4,1.17,4.88,2.34,7.36,3.59,5.13,2.49,10.52,5.21,15.96,7.6-12-.94-24.02-2.21-35.75-4.06-5.21-.79-14.07-3.5-19.68-5.97-.4-1.51-.26-5.31-.04-7.41l-.09-.16Zm460.08-301.33c.84,13.9,1.7,28.27,1.25,42.15-.64,23.31-2.55,47.17-4.33,70.22-3.15,39.79-6.4,80.87-3.7,121.26.56,8.19,2.4,16.08,4.23,23.8,1.63,6.93,3.16,13.46,3.81,20.03-18.93,1.33-37.84,2.81-56.75,4.38-32.27,2.62-65.67,5.3-98.48,6.9-8.7.42-17.41.85-26.13,1.03-8.95.28-17.91.55-26.86.91-51.21,1.85-104.2,3.79-154.93-5.74-3.91-.69-7.82-1.39-11.82-2.08-10.67-1.82-21.59-3.7-31.84-6.67l-2.78-.75c-2.86-.75-10.48-2.79-11.21-4.53.07-1.86,4.1-7.13,6.53-10.23,5.01-6.53,9.8-12.72,8.84-19.2-4.49-29.18-7.43-57.96-8.89-87.86-1.04-21.38-3.88-43.15-6.61-64.21-5.08-39.63-10.39-80.54-3.89-119.6,2.81-16.89,11.11-33.97,19.19-50.48,5.14-10.64,10.5-21.62,14.41-32.52,1.5-4.1,4.13-4.79,13.31-5.4,3.95-.19,8.46-.57,12.68-1.83,9.32-2.79,18.51-4.77,28.27-6.78,5.04-1.05,10.16-2.11,15.27-3.32,63.19-14.76,125.33-19.72,183.18-22.95,6.37-.31,12.65-.62,18.94-.92,24.83-1.21,48.54-2.04,72.59-2.65,2.5-.12,5.08-.17,7.58-.29,2.82-.14,13.78-.75,16.52-.89,5.16-.25,11.93-.5,18.74-.11l1.13-.05c2.01-.1,3.6-.66,4.94-1.45,2.12,2.07,4.87,3.79,7.71,5.66,2.33,1.5,6.34,4.04,6.86,4.9,1.81,17.31-3.39,34.8-8.87,53.36-4.09,13.81-8.32,28.12-9.41,42.35-1.39,17.87-.26,36.11.76,53.7l-.25-.15Zm-102.1,335.43c6.12-.3,12.17-.59,18.21-1.05,18.12-1.2,35.94-6.83,53.13-12.26,10.5-3.33,21.25-6.68,31.88-8.97-.4,3.32-.89,6.57-1.55,9.66-.46,2.2-.51,2.68-4.22,2.87-.96.05-2.01.1-2.98.07-1.29.06-2.58.05-3.96.11-2.5.12-4.58.38-6.58.97-7.1,1.87-13.65,5.01-19.97,8.06-8.45,4.04-16.42,7.89-24.8,8.38l-3.14.15c-33.13,1.62-67.07-1.89-100.42-6.46,22.71.1,44.02-.29,64.41-1.29v-.24Z"/></svg>